<svg width="60" height="100" viewBox="0 0 60 100" fill="none" xmlns="http://www.w3.org/2000/svg">
<path fill-rule="evenodd" clip-rule="evenodd" d="M17.5002 4.9998V2.5C17.5002 1 18.5002 0 20.0002 0H40.0002C41.5002 0 42.5002 1 42.5002 2.5V4.9998H55C57.75 4.9998 60 7.2498 60 9.99981V94.9998C60 97.7498 57.75 99.9998 55 99.9998H5C2.25 99.9998 0 97.7498 0 94.9998V9.99981C0 7.2498 2.25 4.9998 5 4.9998H17.5002Z" fill="#37C750"/>
<g clip-path="url(#clip0_8572_6442)">
<path d="M27.6724 67.75C27.0599 67.75 26.5875 67.2075 26.675 66.595L28.2499 55.5H22.1249C20.5849 55.5 21.5474 54.1875 21.5824 54.135C23.7874 50.2325 27.095 44.4575 31.4699 36.7575C31.6449 36.4425 31.995 36.25 32.3449 36.25C32.9574 36.25 33.4299 36.7925 33.3424 37.405L31.7675 48.5H37.91C38.61 48.5 38.9949 48.8325 38.61 49.655C32.8525 59.7 29.5099 65.5625 28.5475 67.2425C28.3724 67.5575 28.0399 67.75 27.6724 67.75Z" fill="white"/>
</g>
<defs>
<clipPath id="clip0_8572_6442">
<rect width="42" height="42" fill="white" transform="translate(9 31)"/>
</clipPath>
</defs>
</svg>
