<svg width="24" height="24" viewBox="0 0 24 24" fill="none" xmlns="http://www.w3.org/2000/svg">
<path d="M0 0H23.9404V12.9237L22.7554 14.7753L23.9404 16.4232V23.9404H0V11.7573L0.740616 10.9056L0 10.0909V0Z" fill="#016FD0"/>
<path d="M4.64746 16.6825V12.9238H8.62715L9.05413 13.4804L9.49522 12.9238H23.9405V16.4232C23.9405 16.4232 23.5627 16.6787 23.1258 16.6825H15.1272L14.6458 16.09V16.6825H13.0683V15.671C13.0683 15.671 12.8528 15.8122 12.3869 15.8122H11.85V16.6825H9.46146L9.0351 16.1139L8.60218 16.6825H4.64746Z" fill="white"/>
<path d="M0 10.0908L0.897435 7.99854H2.44946L2.95876 9.17052V7.99854H4.88807L5.19125 8.84561L5.48519 7.99854H14.1458V8.42439C14.1458 8.42439 14.601 7.99854 15.3493 7.99854L18.1593 8.00836L18.6598 9.165V7.99854H20.2744L20.7187 8.66294V7.99854H22.3481V11.7572H20.7187L20.2929 11.0906V11.7572H17.9208L17.6822 11.1647H17.0445L16.8098 11.7572H15.2011C14.5573 11.7572 14.1458 11.34 14.1458 11.34V11.7572H11.7202L11.2388 11.1647V11.7572H2.21953L1.98115 11.1647H1.34547L1.10877 11.7572H0V10.0908Z" fill="white"/>
<path d="M1.21508 8.46191L0.00463867 11.2763H0.7927L1.01604 10.7127H2.31443L2.53662 11.2763H3.34204L2.13275 8.46191H1.21508ZM1.66292 9.1169L2.05869 10.1017H1.266L1.66292 9.1169Z" fill="#016FD0"/>
<path d="M3.42529 11.2758V8.46143L4.54517 8.46559L5.19653 10.2801L5.83229 8.46143H6.94322V11.2758H6.23963V9.20204L5.49382 11.2758H4.87677L4.12888 9.20204V11.2758H3.42529Z" fill="#016FD0"/>
<path d="M7.42456 11.2758V8.46143H9.72047V9.09095H8.13555V9.57235H9.68344V10.1648H8.13555V10.6648H9.72047V11.2758H7.42456Z" fill="#016FD0"/>
<path d="M10.1279 8.46191V11.2763H10.8315V10.2764H11.1278L11.9714 11.2763H12.8312L11.9054 10.2394C12.2853 10.2073 12.6773 9.88124 12.6773 9.37496C12.6773 8.78272 12.2124 8.46191 11.6936 8.46191H10.1279ZM10.8315 9.09144H11.6358C11.8287 9.09144 11.9691 9.24235 11.9691 9.38768C11.9691 9.57466 11.7872 9.68393 11.6462 9.68393H10.8315V9.09144Z" fill="#016FD0"/>
<path d="M13.6828 11.2758H12.9644V8.46143H13.6828V11.2758Z" fill="#016FD0"/>
<path d="M15.3863 11.2758H15.2312C14.4809 11.2758 14.0254 10.6847 14.0254 9.88017C14.0254 9.0558 14.4758 8.46143 15.4233 8.46143H16.201V9.12798H15.3949C15.0102 9.12798 14.7382 9.42814 14.7382 9.88711C14.7382 10.4321 15.0493 10.6611 15.4974 10.6611H15.6825L15.3863 11.2758Z" fill="#016FD0"/>
<path d="M16.9172 8.46191L15.7068 11.2763H16.4948L16.7182 10.7127H18.0166L18.2388 11.2763H19.0442L17.8349 8.46191H16.9172ZM17.3651 9.1169L17.7608 10.1017H16.9681L17.3651 9.1169Z" fill="#016FD0"/>
<path d="M19.1265 11.2758V8.46143H20.021L21.1632 10.2296V8.46143H21.8667V11.2758H21.0012L19.8301 9.46126V11.2758H19.1265Z" fill="#016FD0"/>
<path d="M5.12866 16.2011V13.3867H7.42457V14.0162H5.83965V14.4976H7.38754V15.0901H5.83965V15.5901H7.42457V16.2011H5.12866Z" fill="#016FD0"/>
<path d="M16.3787 16.2011V13.3867H18.6746V14.0162H17.0897V14.4976H18.6301V15.0901H17.0897V15.5901H18.6746V16.2011H16.3787Z" fill="#016FD0"/>
<path d="M7.51368 16.2011L8.63154 14.8112L7.48706 13.3867H8.37349L9.05508 14.2674L9.739 13.3867H10.5907L9.46126 14.7939L10.5812 16.2011H9.69491L9.0331 15.3343L8.38737 16.2011H7.51368Z" fill="#016FD0"/>
<path d="M10.6648 13.3872V16.2015H11.3869V15.3128H12.1275C12.7542 15.3128 13.2292 14.9804 13.2292 14.3338C13.2292 13.7982 12.8566 13.3872 12.2189 13.3872H10.6648ZM11.3869 14.0237H12.1669C12.3693 14.0237 12.514 14.1478 12.514 14.3477C12.514 14.5355 12.37 14.6717 12.1645 14.6717H11.3869V14.0237Z" fill="#016FD0"/>
<path d="M13.5347 13.3867V16.2011H14.2383V15.2012H14.5345L15.3781 16.2011H16.2379L15.3121 15.1642C15.6921 15.1321 16.084 14.806 16.084 14.2998C16.084 13.7075 15.6192 13.3867 15.1004 13.3867H13.5347ZM14.2383 14.0162H15.0425C15.2354 14.0162 15.3758 14.1672 15.3758 14.3125C15.3758 14.4995 15.194 14.6087 15.0529 14.6087H14.2383V14.0162Z" fill="#016FD0"/>
<path d="M19.0005 16.2011V15.5901H20.4086C20.6169 15.5901 20.7071 15.4775 20.7071 15.354C20.7071 15.2357 20.6172 15.1161 20.4086 15.1161H19.7723C19.2192 15.1161 18.9111 14.7791 18.9111 14.2731C18.9111 13.8219 19.1932 13.3867 20.0151 13.3867H21.3853L21.089 14.0199H19.904C19.6775 14.0199 19.6078 14.1388 19.6078 14.2523C19.6078 14.369 19.6939 14.4976 19.867 14.4976H20.5335C21.1501 14.4976 21.4177 14.8474 21.4177 15.3054C21.4177 15.7978 21.1195 16.2011 20.5 16.2011H19.0005Z" fill="#016FD0"/>
<path d="M21.5827 16.2011V15.5901H22.9908C23.1992 15.5901 23.2894 15.4775 23.2894 15.354C23.2894 15.2357 23.1995 15.1161 22.9908 15.1161H22.3545C21.8014 15.1161 21.4934 14.7791 21.4934 14.2731C21.4934 13.8219 21.7755 13.3867 22.5974 13.3867H23.9675L23.6713 14.0199H22.4863C22.2598 14.0199 22.1901 14.1388 22.1901 14.2523C22.1901 14.369 22.2762 14.4976 22.4493 14.4976H23.1158C23.7324 14.4976 23.9999 14.8474 23.9999 15.3054C23.9999 15.7978 23.7018 16.2011 23.0823 16.2011H21.5827Z" fill="#016FD0"/>
</svg>
