<svg width="24" height="24" viewBox="0 0 24 24" fill="none" xmlns="http://www.w3.org/2000/svg">
<path d="M24 19.1327C24 19.9163 23.3648 20.5515 22.5813 20.5515H1.41867C0.635156 20.5515 0 19.9162 0 19.1327V5.41872C0 4.63516 0.635156 4 1.41867 4H22.5813C23.3648 4 24 4.6352 24 5.41872L24 19.1327Z" fill="#34495E"/>
<path opacity="0.15" d="M1.00861 19.1327V5.41872C1.00861 4.63516 1.64386 4 2.42738 4H1.41862C0.635156 4 0 4.63525 0 5.41872V19.1327C0 19.9163 0.635156 20.5515 1.41867 20.5515H2.42742C1.64391 20.5515 1.00861 19.9162 1.00861 19.1327Z" fill="#202121"/>
<path d="M14.5025 12.2663C14.5044 11.8146 14.3351 11.3623 13.9942 11.0214C13.6526 10.6798 13.1992 10.5106 12.7466 10.5133C12.7444 10.5133 12.7423 10.5132 12.74 10.5132C11.7572 10.5132 10.9775 11.2926 10.9775 12.2758C10.9775 13.2492 11.7668 14.0382 12.74 14.0382C13.7232 14.0382 14.5027 13.2587 14.5027 12.2758C14.5027 12.2725 14.5025 12.2695 14.5025 12.2663Z" fill="#F26E21"/>
<path d="M10.6498 13.0214C10.3864 13.2851 10.1433 13.3881 9.88138 13.3937C9.24337 13.388 8.77429 12.9155 8.77429 12.2418C8.77429 11.9027 8.90268 11.6248 9.10607 11.3874C9.2968 11.2063 9.54252 11.0893 9.82508 11.0893C10.1301 11.0893 10.3675 11.191 10.6385 11.4622V10.6826C10.3675 10.5471 10.1301 10.4792 9.82508 10.4792C9.39421 10.51 8.98794 10.6841 8.67632 10.9575C8.58651 11.0383 8.50044 11.1275 8.42746 11.2296C8.19983 11.5247 8.06226 11.8859 8.06226 12.2759C8.06226 13.2587 8.84212 14.0044 9.82504 14.0044C9.82982 14.0044 9.83455 14.004 9.83919 14.0039C9.8458 14.004 9.85232 14.0044 9.85888 14.0044C10.13 14.0044 10.3675 13.9367 10.6725 13.8011L10.6498 13.0214C10.6384 13.0328 10.6612 13.0435 10.6498 13.0543V13.0214Z" fill="#E7E8E3"/>
<path d="M16.7279 10.9648L15.9602 12.852L15.0789 10.6147H14.3672L15.7568 14.0383H16.1297L17.5872 10.6147H16.8755L16.7279 10.9648Z" fill="#E7E8E3"/>
<path d="M17.8586 12.1062V13.9367H19.6891H19.7229V13.3942H19.1467H18.5365V12.7842V12.4792H19.6891V11.9028H18.5365V11.1911H19.7229V10.6147H17.8586V12.1062Z" fill="#E7E8E3"/>
<path d="M2.53764 10.6147H1.58838V13.9367H2.5376C3.04596 13.9367 3.41875 13.801 3.72382 13.5637C4.09661 13.2587 4.33399 12.7843 4.33399 12.2759C4.33404 11.2927 3.6221 10.6147 2.53764 10.6147ZM3.31718 13.1232C3.11379 13.2926 2.84261 13.3942 2.43583 13.3942H2.23244V11.191H2.40189C2.80868 11.191 3.07985 11.2588 3.28329 11.4621C3.52052 11.6654 3.65618 11.9706 3.65618 12.2758C3.69007 12.5808 3.5545 12.9196 3.31718 13.1232Z" fill="#E7E8E3"/>
<path d="M5.28318 10.6143H4.63916V13.9361H5.28318V10.6143Z" fill="#E7E8E3"/>
<path d="M6.91015 11.9028C6.50346 11.7673 6.40165 11.6655 6.40165 11.4961C6.40165 11.2927 6.60504 11.1233 6.87621 11.1233C7.07961 11.1233 7.24906 11.1911 7.41856 11.3945L7.75761 10.9539C7.48634 10.7165 7.14753 10.5811 6.77464 10.5811C6.19826 10.5811 5.7237 10.9878 5.7237 11.53C5.7237 12.0046 5.92728 12.208 6.53731 12.4453C6.80848 12.5468 6.9102 12.5808 6.97812 12.6486C7.11345 12.7163 7.18137 12.852 7.18137 12.9874C7.18137 13.2586 6.97812 13.4621 6.67287 13.4621C6.36753 13.4621 6.09659 13.2926 5.96098 13.0214L5.5542 13.4282C5.8594 13.8688 6.23225 14.0722 6.70681 14.0722C7.38467 14.0722 7.859 13.6315 7.859 12.9874C7.85909 12.4113 7.65589 12.1741 6.91015 11.9028Z" fill="#E7E8E3"/>
<path d="M21.5534 12.5468C22.0617 12.4453 22.3329 12.1062 22.3329 11.5979C22.3329 10.9878 21.8922 10.6147 21.1466 10.6147H20.1636V13.9367H20.8076V12.6146H20.9094L21.8244 13.9367H22.6041L21.5534 12.5468ZM21.0109 12.14H20.8076V11.1232H21.0109C21.4177 11.1232 21.655 11.2927 21.655 11.6318C21.655 11.9707 21.4177 12.14 21.0109 12.14Z" fill="#E7E8E3"/>
</svg>
