<svg width="24" height="24" viewBox="0 0 24 24" fill="none" xmlns="http://www.w3.org/2000/svg">
<path d="M4.34977 21.5981V20.3612C4.34977 19.888 4.06154 19.5781 3.56674 19.5781C3.31934 19.5781 3.05033 19.6598 2.86538 19.9288C2.72127 19.703 2.5147 19.5781 2.20485 19.5781C1.99829 19.5781 1.79172 19.6406 1.62839 19.8664V19.619H1.19604V21.5981H1.62839V20.5053C1.62839 20.1546 1.81334 19.9889 2.10157 19.9889C2.3898 19.9889 2.53392 20.1738 2.53392 20.5053V21.5981H2.96626V20.5053C2.96626 20.1546 3.17283 19.9889 3.43944 19.9889C3.72767 19.9889 3.87179 20.1738 3.87179 20.5053V21.5981H4.34977ZM10.7629 19.619H10.0615V19.0209H9.62919V19.619H9.23768V20.0105H9.62919V20.9184C9.62919 21.3724 9.81414 21.639 10.3089 21.639C10.4939 21.639 10.7004 21.5765 10.8446 21.4949L10.7197 21.1226C10.5948 21.2042 10.4506 21.2258 10.3474 21.2258C10.1408 21.2258 10.0591 21.1009 10.0591 20.8968V20.0105H10.7605V19.619H10.7629ZM14.433 19.5757C14.1856 19.5757 14.0199 19.7006 13.9166 19.864V19.6166H13.4843V21.5957H13.9166V20.4813C13.9166 20.1522 14.0607 19.9648 14.3298 19.9648C14.4114 19.9648 14.5147 19.9865 14.5988 20.0057L14.7237 19.5925C14.6372 19.5757 14.5147 19.5757 14.433 19.5757ZM8.887 19.7823C8.68043 19.6382 8.3922 19.5757 8.08235 19.5757C7.58756 19.5757 7.2585 19.8231 7.2585 20.2146C7.2585 20.5437 7.50589 20.7311 7.93824 20.7911L8.1448 20.8127C8.37058 20.8536 8.49549 20.916 8.49549 21.0193C8.49549 21.1634 8.32975 21.2667 8.04152 21.2667C7.75329 21.2667 7.52511 21.1634 7.38099 21.0601L7.17443 21.3892C7.40021 21.5549 7.71006 21.6366 8.0199 21.6366C8.59637 21.6366 8.92783 21.3676 8.92783 20.9977C8.92783 20.647 8.65882 20.462 8.24809 20.3996L8.04152 20.378C7.85657 20.3564 7.71246 20.3155 7.71246 20.193C7.71246 20.0489 7.85657 19.9672 8.08476 19.9672C8.33215 19.9672 8.57955 20.0705 8.70445 20.133L8.887 19.7823ZM20.3898 19.5757C20.1424 19.5757 19.9767 19.7006 19.8734 19.864V19.6166H19.441V21.5957H19.8734V20.4813C19.8734 20.1522 20.0175 19.9648 20.2865 19.9648C20.3682 19.9648 20.4715 19.9865 20.5555 20.0057L20.6804 19.5973C20.5964 19.5757 20.4739 19.5757 20.3898 19.5757ZM14.8654 20.6086C14.8654 21.2066 15.2785 21.639 15.9174 21.639C16.2057 21.639 16.4122 21.5765 16.6188 21.4132L16.4122 21.0625C16.2465 21.1874 16.0832 21.2475 15.8958 21.2475C15.5451 21.2475 15.2977 21.0001 15.2977 20.6086C15.2977 20.2363 15.5451 19.9889 15.8958 19.9696C16.0808 19.9696 16.2465 20.0321 16.4122 20.1546L16.6188 19.8039C16.4122 19.6382 16.2057 19.5781 15.9174 19.5781C15.2785 19.5757 14.8654 20.0105 14.8654 20.6086ZM18.8646 20.6086V19.619H18.4322V19.8664C18.2881 19.6814 18.0816 19.5781 17.8125 19.5781C17.2553 19.5781 16.8229 20.0105 16.8229 20.6086C16.8229 21.2066 17.2553 21.639 17.8125 21.639C18.1008 21.639 18.3073 21.5357 18.4322 21.3507V21.5981H18.8646V20.6086ZM17.2769 20.6086C17.2769 20.2579 17.5027 19.9696 17.875 19.9696C18.2257 19.9696 18.4731 20.2387 18.4731 20.6086C18.4731 20.9592 18.2257 21.2475 17.875 21.2475C17.5051 21.2259 17.2769 20.9568 17.2769 20.6086ZM12.1032 19.5757C11.5267 19.5757 11.1136 19.9889 11.1136 20.6062C11.1136 21.2258 11.5267 21.6366 12.1248 21.6366C12.413 21.6366 12.7012 21.5549 12.9294 21.3676L12.7229 21.0577C12.5571 21.1826 12.3506 21.2643 12.1464 21.2643C11.8774 21.2643 11.6108 21.1394 11.5483 20.7911H13.0111C13.0111 20.7287 13.0111 20.6878 13.0111 20.6254C13.0303 19.9889 12.658 19.5757 12.1032 19.5757ZM12.1032 19.948C12.3722 19.948 12.5571 20.1138 12.598 20.4212H11.5675C11.6084 20.1546 11.7933 19.948 12.1032 19.948ZM22.8446 20.6086V18.8359H22.4122V19.8664C22.2681 19.6814 22.0615 19.5781 21.7925 19.5781C21.2353 19.5781 20.8029 20.0105 20.8029 20.6086C20.8029 21.2066 21.2353 21.639 21.7925 21.639C22.0808 21.639 22.2873 21.5357 22.4122 21.3507V21.5981H22.8446V20.6086ZM21.2569 20.6086C21.2569 20.2579 21.4827 19.9696 21.855 19.9696C22.2057 19.9696 22.4531 20.2387 22.4531 20.6086C22.4531 20.9592 22.2057 21.2475 21.855 21.2475C21.4827 21.2259 21.2569 20.9568 21.2569 20.6086ZM6.78291 20.6086V19.619H6.35057V19.8664C6.20645 19.6814 5.99989 19.5781 5.73087 19.5781C5.17363 19.5781 4.74128 20.0105 4.74128 20.6086C4.74128 21.2066 5.17363 21.639 5.73087 21.639C6.0191 21.639 6.22567 21.5357 6.35057 21.3507V21.5981H6.78291V20.6086ZM5.17603 20.6086C5.17603 20.2579 5.40181 19.9696 5.77411 19.9696C6.12479 19.9696 6.37219 20.2387 6.37219 20.6086C6.37219 20.9592 6.12479 21.2475 5.77411 21.2475C5.40181 21.2259 5.17603 20.9568 5.17603 20.6086Z" fill="black"/>
<path d="M15.2377 4.58765H8.74292V16.2562H15.2377V4.58765Z" fill="#FF5A00"/>
<path d="M9.17534 10.4219C9.17534 8.05124 10.2898 5.94716 12 4.58767C10.7414 3.59808 9.15372 3 7.42194 3C3.31946 3 0 6.31946 0 10.4219C0 14.5244 3.31946 17.8439 7.42194 17.8439C9.15372 17.8439 10.7414 17.2458 12 16.2562C10.2874 14.9159 9.17534 12.7926 9.17534 10.4219Z" fill="#EB001B"/>
<path d="M24 10.4219C24 14.5244 20.6805 17.8439 16.5781 17.8439C14.8463 17.8439 13.2586 17.2458 12 16.2562C13.7318 14.8943 14.8247 12.7926 14.8247 10.4219C14.8247 8.05124 13.7102 5.94716 12 4.58767C13.2562 3.59808 14.8439 3 16.5757 3C20.6805 3 24 6.34107 24 10.4219Z" fill="#F79E1B"/>
</svg>
