<svg width="24" height="24" viewBox="0 0 24 24" fill="none" xmlns="http://www.w3.org/2000/svg">
<path d="M15.7039 8.80005C16.4426 8.80005 17.0386 8.95804 17.5017 9.11646L17.1599 10.6272C16.3002 10.2471 15.5393 10.2781 15.2634 10.3098C14.7122 10.3837 14.458 10.6589 14.447 10.9124C14.4364 11.7465 17.159 11.8522 17.1482 13.7317C17.1372 15.2102 15.825 16.1711 13.8074 16.1711C12.9475 16.1605 12.1207 15.9919 11.6687 15.7913L12.0212 14.2278C12.4622 14.4284 13.0249 14.6924 13.9949 14.6819C14.5461 14.6713 15.1311 14.4607 15.1423 13.9856C15.1423 13.6688 14.8882 13.4464 14.1384 13.0979C13.4109 12.7494 12.4412 12.1795 12.4519 11.1555C12.4629 9.77215 13.8077 8.80016 15.7039 8.80005ZM3.45386 8.927C3.87279 8.92701 4.24844 9.1909 4.33667 9.65552L5.1521 13.7747L7.15894 8.927H9.17651L6.0564 16.0559H4.0271L2.49487 10.3743C2.40669 10.0258 2.31824 9.89904 2.04272 9.75122C1.56864 9.50833 0.808037 9.27523 0.135498 9.13794L0.179443 8.927H3.45386ZM10.3337 16.0549H8.41479L10.0027 8.927H11.9207L10.3337 16.0549ZM23.95 16.0549H22.1746L21.9324 14.9778H19.4626L19.0662 16.0452H17.0476L19.9363 9.44458C20.0686 9.12776 20.3778 8.927 20.7527 8.927H22.3953L23.95 16.0549ZM20.0251 13.5315H21.6238L21.0388 10.8596L20.0251 13.5315Z" fill="#1A1F71"/>
</svg>
