<svg width="80" height="80" viewBox="0 0 80 80" fill="none" xmlns="http://www.w3.org/2000/svg">
<path d="M40 0.5C61.8152 0.500033 79.5 18.1848 79.5 40C79.5 61.8152 61.8152 79.5 40 79.5C18.1848 79.5 0.5 61.8152 0.5 40C0.5 18.1848 18.1848 0.5 40 0.5Z" fill="#F4F6F9" stroke="#DBDFE3"/>
<g clip-path="url(#clip0_199_40927)">
<path d="M33.7503 48.75L26.4587 41.4583C25.6462 40.6458 24.3545 40.6458 23.542 41.4583C22.7295 42.2708 22.7295 43.5625 23.542 44.375L32.2712 53.1042C33.0837 53.9167 34.3962 53.9167 35.2087 53.1042L57.292 31.0417C58.1045 30.2292 58.1045 28.9375 57.292 28.125C56.4795 27.3125 55.1878 27.3125 54.3753 28.125L33.7503 48.75Z" fill="#1581FF"/>
</g>
<defs>
<clipPath id="clip0_199_40927">
<rect width="50" height="50" fill="white" transform="translate(15 15)"/>
</clipPath>
</defs>
</svg>
