<svg width="30" height="30" viewBox="0 0 30 30" fill="none" xmlns="http://www.w3.org/2000/svg">
<g clip-path="url(#clip0_8229_6444)">
<path d="M5.4 10.1429H22.2V7.7619H5.4V10.1429ZM5.4 26.8095C4.74 26.8095 4.175 26.5764 3.705 26.1101C3.235 25.6438 3 25.0833 3 24.4286V7.7619C3 7.10714 3.235 6.54663 3.705 6.08036C4.175 5.61409 4.74 5.38095 5.4 5.38095H6.6V3H9V5.38095H18.6V3H21V5.38095H22.2C22.86 5.38095 23.425 5.61409 23.895 6.08036C24.365 6.54663 24.6 7.10714 24.6 7.7619V14.5179C24.22 14.3393 23.83 14.1905 23.43 14.0714C23.03 13.9524 22.62 13.8631 22.2 13.8036V12.5238H5.4V24.4286H12.96C13.1 24.8651 13.265 25.2817 13.455 25.6786C13.645 26.0754 13.87 26.4524 14.13 26.8095H5.4ZM16.755 26.2589C15.585 25.0982 15 23.6944 15 22.0476C15 20.4008 15.585 18.997 16.755 17.8363C17.925 16.6756 19.34 16.0952 21 16.0952C22.66 16.0952 24.075 16.6756 25.245 17.8363C26.415 18.997 27 20.4008 27 22.0476C27 23.6944 26.415 25.0982 25.245 26.2589C24.075 27.4196 22.66 28 21 28C19.34 28 17.925 27.4196 16.755 26.2589ZM23.01 24.875L23.85 24.0417L21.6 21.8095V18.4762H20.4V22.2857L23.01 24.875Z" fill="#1581FF"/>
</g>
<defs>
<clipPath id="clip0_8229_6444">
<rect width="30" height="30" fill="white"/>
</clipPath>
</defs>
</svg>
